<svg fill="none" height="100%" width="100%" viewBox="0 0 1080 1080" xmlns:xlink="http://www.w3.org/1999/xlink" xmlns="http://www.w3.org/2000/svg"><g id="i0"><g transform="translate(540,540)"><g transform="scale(4.98,4.98)"><animateTransform repeatCount="indefinite" type="scale" attributeName="transform" dur="3.083s" begin="0s" calcMode="spline" values="4.98 4.98; 5.478 5.478; 4.98 4.98; 4.98 4.98; 5.478 5.478; 4.98 4.98; 4.98 4.98" keyTimes="0; 0.081081; 0.162162; 0.459454; 0.540535; 0.621616; 1" keySplines="0.333 0 0.24 1; 0.824 0 0.667 1; 0 0 1 1; 0.333 0 0.24 1; 0.824 0 0.667 1; 0 0 1 1" fill="freeze" /><g id="i1"><g transform="translate(0,0)"><g transform="rotate(-150)"><animateTransform repeatCount="indefinite" type="rotate" attributeName="transform" dur="3.083s" begin="0s" calcMode="spline" values="-150; -150; 0; 0; -150; -150" keyTimes="0; 0.145946; 0.416211; 0.697292; 0.967562; 1" keySplines="0 0 1 1; 1 0 0.833 1; 0.167 0 0.833 1; 0.167 0 0 1; 0 0 1 1" fill="freeze" /><g id="i2"><g id="i3" opacity="0"><animate repeatCount="indefinite" attributeName="opacity" dur="3.083s" begin="0s" fill="freeze" values="0; 0; 1; 1; 0; 0" keyTimes="0; 0.362157; 0.416211; 0.913508; 0.967562; 1" keySplines="0 0 1 1; 1 0 0 1; 0.167 0 0 1; 1 0 0 1; 0 0 1 1" calcMode="spline" /><g id="i3"><path fill="#f28421" d="M48.372,-15.715C48.372,-15.715,36.76,-11.944,36.76,-11.944C31.73,-27.44,17.173,-38.643,0,-38.643C0,-38.643,0,-50.846,0,-50.846C11.171,-50.846,21.501,-47.246,29.89,-41.138C38.47,-34.892,45.023,-26.027,48.372,-15.715Z" /></g></g></g><g id="i4" opacity="0"><animate repeatCount="indefinite" attributeName="opacity" dur="3.083s" begin="0s" fill="freeze" values="0; 0; 1; 1; 0; 0" keyTimes="0; 0.318919; 0.372968; 0.870265; 0.924319; 1" keySplines="0 0 1 1; 1 0 0 1; 0.167 0 0 1; 1 0 0 1; 0 0 1 1" calcMode="spline" /><g id="i3" opacity="0"><animate repeatCount="indefinite" attributeName="opacity" dur="3.083s" begin="0s" fill="freeze" values="0; 0; 1; 1; 0; 0" keyTimes="0; 0.275676; 0.32973; 0.827021; 0.881076; 1" keySplines="0 0 1 1; 1 0 0 1; 0.167 0 0 1; 1 0 0 1; 0 0 1 1" calcMode="spline" /><g id="i3"><path fill="#a7dce6" d="M0,-50.846C0,-50.846,0,-38.643,0,-38.643C0,-38.643,-0.003,-38.643,-0.003,-38.643C-17.175,-38.643,-31.732,-27.44,-36.765,-11.944C-36.765,-11.944,-48.372,-15.715,-48.372,-15.715C-45.023,-26.027,-38.47,-34.892,-29.89,-41.138C-21.501,-47.246,-11.171,-50.846,0,-50.846Z" /></g></g></g><g id="i5" opacity="0"><animate repeatCount="indefinite" attributeName="opacity" dur="3.083s" begin="0s" fill="freeze" values="0; 0; 1; 1; 0; 0" keyTimes="0; 0.232432; 0.286487; 0.783778; 0.837832; 1" keySplines="0 0 1 1; 1 0 0 1; 0.167 0 0 1; 1 0 0 1; 0 0 1 1" calcMode="spline" /><path fill="#812b88" d="M-22.717,31.267C-22.717,31.267,-29.89,41.138,-29.89,41.138C-38.47,34.892,-45.023,26.027,-48.372,15.715C-49.978,10.768,-50.846,5.486,-50.846,0C-50.846,-5.486,-49.978,-10.768,-48.372,-15.715C-48.372,-15.715,-36.765,-11.944,-36.765,-11.944C-37.986,-8.182,-38.646,-4.169,-38.646,0C-38.646,12.853,-32.369,24.24,-22.717,31.267Z" /></g><g id="i6" opacity="0"><animate repeatCount="indefinite" attributeName="opacity" dur="3.083s" begin="0s" fill="freeze" values="0; 0; 1; 1; 0; 0" keyTimes="0; 0.189189; 0.243244; 0.740535; 0.794589; 1" keySplines="0 0 1 1; 1 0 0 1; 0.167 0 0 1; 1 0 0 1; 0 0 1 1" calcMode="spline" /><g id="i3"><g id="i3"><path fill="#00b2cf" d="M29.89,41.138C21.501,47.244,11.171,50.846,0,50.846C-11.171,50.846,-21.501,47.244,-29.89,41.138C-29.89,41.138,-22.717,31.267,-22.717,31.267C-16.34,35.907,-8.492,38.643,-0.003,38.643C8.487,38.643,16.34,35.904,22.714,31.264C22.714,31.264,29.89,41.138,29.89,41.138Z" /></g></g></g><g id="i7" opacity="0"><animate repeatCount="indefinite" attributeName="opacity" dur="3.083s" begin="0s" fill="freeze" values="0; 0; 1; 1; 0; 0" keyTimes="0; 0.145946; 0.2; 0.697292; 0.751346; 1" keySplines="0 0 1 1; 1 0 0 1; 0.167 0 0 1; 1 0 0 1; 0 0 1 1" calcMode="spline" /><g id="i3"><g id="i3"><path fill="#066aae" d="M50.846,0C50.846,5.486,49.978,10.768,48.372,15.715C45.023,26.027,38.47,34.892,29.89,41.138C29.89,41.138,22.714,31.264,22.714,31.264C32.367,24.237,38.641,12.853,38.641,0C38.641,-4.169,37.981,-8.182,36.76,-11.944C36.76,-11.944,48.372,-15.715,48.372,-15.715C49.978,-10.768,50.846,-5.486,50.846,0Z" /></g></g></g></g></g></g></g></g></g><g id="i0"><g transform="translate(540,540)"><g transform="scale(4.98,4.98)"><animateTransform repeatCount="indefinite" type="scale" attributeName="transform" dur="3.083s" begin="0s" calcMode="spline" values="4.98 4.98; 5.478 5.478; 4.98 4.98; 4.98 4.98; 5.478 5.478; 4.98 4.98; 4.98 4.98" keyTimes="0; 0.081081; 0.162162; 0.459454; 0.540535; 0.621616; 1" keySplines="0.333 0 0.24 1; 0.824 0 0.667 1; 0 0 1 1; 0.333 0 0.24 1; 0.824 0 0.667 1; 0 0 1 1" fill="freeze" /><g id="i8"><g transform="translate(0,0)"><g transform="rotate(150)"><animateTransform repeatCount="indefinite" type="rotate" attributeName="transform" dur="3.083s" begin="0s" calcMode="spline" values="150; 150; -160; -160; 150; 150" keyTimes="0; 0.145946; 0.416211; 0.697292; 0.967562; 1" keySplines="0 0 1 1; 1 0 0.833 1; 0.167 0 0.833 1; 0.167 0 0 1; 0 0 1 1" fill="freeze" /><g transform="scale(0.67,0.67)"><g id="i2"><g id="i3" opacity="0"><animate repeatCount="indefinite" attributeName="opacity" dur="3.083s" begin="0s" fill="freeze" values="0; 0; 1; 1; 0; 0" keyTimes="0; 0.362157; 0.416211; 0.913508; 0.967562; 1" keySplines="0 0 1 1; 1 0 0 1; 0.167 0 0 1; 1 0 0 1; 0 0 1 1" calcMode="spline" /><g id="i3"><path fill="#f28421" d="M48.372,-15.715C48.372,-15.715,36.76,-11.944,36.76,-11.944C31.73,-27.44,17.173,-38.643,0,-38.643C0,-38.643,0,-50.846,0,-50.846C11.171,-50.846,21.501,-47.246,29.89,-41.138C38.47,-34.892,45.023,-26.027,48.372,-15.715Z" /></g></g></g><g id="i4" opacity="0"><animate repeatCount="indefinite" attributeName="opacity" dur="3.083s" begin="0s" fill="freeze" values="0; 0; 1; 1; 0; 0" keyTimes="0; 0.318919; 0.372968; 0.870265; 0.924319; 1" keySplines="0 0 1 1; 1 0 0 1; 0.167 0 0 1; 1 0 0 1; 0 0 1 1" calcMode="spline" /><g id="i3" opacity="0"><animate repeatCount="indefinite" attributeName="opacity" dur="3.083s" begin="0s" fill="freeze" values="0; 0; 1; 1; 0; 0" keyTimes="0; 0.275676; 0.32973; 0.827021; 0.881076; 1" keySplines="0 0 1 1; 1 0 0 1; 0.167 0 0 1; 1 0 0 1; 0 0 1 1" calcMode="spline" /><g id="i3"><path fill="#a7dce6" d="M0,-50.846C0,-50.846,0,-38.643,0,-38.643C0,-38.643,-0.003,-38.643,-0.003,-38.643C-17.175,-38.643,-31.732,-27.44,-36.765,-11.944C-36.765,-11.944,-48.372,-15.715,-48.372,-15.715C-45.023,-26.027,-38.47,-34.892,-29.89,-41.138C-21.501,-47.246,-11.171,-50.846,0,-50.846Z" /></g></g></g><g id="i5" opacity="0"><animate repeatCount="indefinite" attributeName="opacity" dur="3.083s" begin="0s" fill="freeze" values="0; 0; 1; 1; 0; 0" keyTimes="0; 0.232432; 0.286487; 0.783778; 0.837832; 1" keySplines="0 0 1 1; 1 0 0 1; 0.167 0 0 1; 1 0 0 1; 0 0 1 1" calcMode="spline" /><path fill="#812b88" d="M-22.717,31.267C-22.717,31.267,-29.89,41.138,-29.89,41.138C-38.47,34.892,-45.023,26.027,-48.372,15.715C-49.978,10.768,-50.846,5.486,-50.846,0C-50.846,-5.486,-49.978,-10.768,-48.372,-15.715C-48.372,-15.715,-36.765,-11.944,-36.765,-11.944C-37.986,-8.182,-38.646,-4.169,-38.646,0C-38.646,12.853,-32.369,24.24,-22.717,31.267Z" /></g><g id="i6" opacity="0"><animate repeatCount="indefinite" attributeName="opacity" dur="3.083s" begin="0s" fill="freeze" values="0; 0; 1; 1; 0; 0" keyTimes="0; 0.189189; 0.243244; 0.740535; 0.794589; 1" keySplines="0 0 1 1; 1 0 0 1; 0.167 0 0 1; 1 0 0 1; 0 0 1 1" calcMode="spline" /><g id="i3"><g id="i3"><path fill="#00b2cf" d="M29.89,41.138C21.501,47.244,11.171,50.846,0,50.846C-11.171,50.846,-21.501,47.244,-29.89,41.138C-29.89,41.138,-22.717,31.267,-22.717,31.267C-16.34,35.907,-8.492,38.643,-0.003,38.643C8.487,38.643,16.34,35.904,22.714,31.264C22.714,31.264,29.89,41.138,29.89,41.138Z" /></g></g></g><g id="i7" opacity="0"><animate repeatCount="indefinite" attributeName="opacity" dur="3.083s" begin="0s" fill="freeze" values="0; 0; 1; 1; 0; 0" keyTimes="0; 0.145946; 0.2; 0.697292; 0.751346; 1" keySplines="0 0 1 1; 1 0 0 1; 0.167 0 0 1; 1 0 0 1; 0 0 1 1" calcMode="spline" /><g id="i3"><g id="i3"><path fill="#066aae" d="M50.846,0C50.846,5.486,49.978,10.768,48.372,15.715C45.023,26.027,38.47,34.892,29.89,41.138C29.89,41.138,22.714,31.264,22.714,31.264C32.367,24.237,38.641,12.853,38.641,0C38.641,-4.169,37.981,-8.182,36.76,-11.944C36.76,-11.944,48.372,-15.715,48.372,-15.715C49.978,-10.768,50.846,-5.486,50.846,0Z" /></g></g></g></g></g></g></g></g></g></g><g id="i0"><g transform="translate(540,540)"><g transform="scale(4.98,4.98)"><animateTransform repeatCount="indefinite" type="scale" attributeName="transform" dur="3.083s" begin="0s" calcMode="spline" values="4.98 4.98; 5.478 5.478; 4.98 4.98; 4.98 4.98; 5.478 5.478; 4.98 4.98; 4.98 4.98" keyTimes="0; 0.081081; 0.162162; 0.459454; 0.540535; 0.621616; 1" keySplines="0.333 0 0.24 1; 0.824 0 0.667 1; 0 0 1 1; 0.333 0 0.24 1; 0.824 0 0.667 1; 0 0 1 1" fill="freeze" /><g id="i9"><path fill="#121c43" d="M-0.987,15.343C-11.833,10.937,-16.443,2.203,-15.31,-10.514C-15.31,-10.514,-0.987,-16.571,-0.987,-16.571C-0.987,-16.571,13.331,-10.514,13.331,-10.514C14.466,2.203,9.857,10.937,-0.987,15.343Z" /></g><g id="i10"><path fill="#a7dce6" d="M7.097,-8.741C6.992,-8.633,6.851,-8.575,6.71,-8.575C6.576,-8.575,6.445,-8.625,6.342,-8.726C4.761,-10.237,2.729,-11.214,0.461,-11.553C-1.045,-11.778,-2.611,-11.669,-4.071,-11.236C-4.99,-10.962,-5.869,-10.567,-6.679,-10.058C-6.929,-9.902,-7.258,-9.98,-7.414,-10.229C-7.573,-10.478,-7.495,-10.808,-7.246,-10.964C-6.355,-11.523,-5.388,-11.959,-4.373,-12.258C-2.767,-12.737,-1.04,-12.858,0.619,-12.608C3.107,-12.238,5.34,-11.161,7.08,-9.497C7.294,-9.293,7.299,-8.955,7.097,-8.741Z" /></g><g id="i11"><path fill="#a7dce6" d="M0.332,-10.682C-1.05,-10.889,-2.485,-10.788,-3.817,-10.39C-5.947,-9.758,-7.732,-8.469,-9.116,-6.564C-9.29,-6.327,-9.237,-5.992,-8.998,-5.818C-8.905,-5.75,-8.794,-5.718,-8.686,-5.718C-8.52,-5.718,-8.356,-5.793,-8.253,-5.937C-7.007,-7.649,-5.413,-8.802,-3.512,-9.368C-2.329,-9.721,-1.055,-9.809,0.174,-9.625C2.593,-9.262,4.668,-8.021,6.015,-6.133C6.186,-5.894,6.518,-5.838,6.757,-6.007C6.999,-6.178,7.054,-6.513,6.883,-6.752C5.37,-8.88,3.041,-10.275,0.332,-10.682Z" /></g><g id="i12"><path fill="#a7dce6" d="M5.297,-5.622C4.091,-7.316,2.226,-8.427,0.043,-8.754C-1.06,-8.92,-2.203,-8.839,-3.263,-8.522C-5.869,-7.747,-7.918,-5.632,-9.031,-2.571C-9.132,-2.294,-8.988,-1.986,-8.711,-1.886C-8.434,-1.785,-8.127,-1.929,-8.026,-2.205C-7.324,-4.142,-5.871,-6.631,-2.958,-7.5C-2.047,-7.769,-1.062,-7.84,-0.113,-7.696C1.777,-7.414,3.389,-6.458,4.426,-5.003C5.053,-4.121,5.433,-3.157,5.589,-2.049C5.624,-1.782,5.854,-1.589,6.115,-1.589C6.141,-1.589,6.166,-1.591,6.191,-1.594C6.483,-1.636,6.687,-1.906,6.647,-2.198C6.465,-3.479,6.025,-4.6,5.297,-5.622Z" /></g><g id="i13"><path fill="#a7dce6" d="M5.511,4.907C4.658,4.222,4.426,3.701,4.476,2.583C4.502,2.032,4.567,1.485,4.632,0.959C4.844,-0.783,5.066,-2.586,3.708,-4.489C2.802,-5.765,1.433,-6.574,-0.247,-6.825C-3.855,-7.364,-6.203,-4.638,-7.2,-1.906C-7.634,-0.715,-7.898,0.599,-7.928,1.702C-8.016,4.816,-6.732,8.049,-4.114,11.309C-4.008,11.44,-3.852,11.511,-3.696,11.511C-3.58,11.511,-3.462,11.47,-3.364,11.392C-3.132,11.206,-3.097,10.871,-3.281,10.642C-5.735,7.583,-6.939,4.587,-6.861,1.732C-6.833,0.74,-6.591,-0.451,-6.196,-1.538C-5.345,-3.877,-3.376,-6.216,-0.405,-5.77C0.982,-5.561,2.102,-4.904,2.837,-3.87C3.955,-2.304,3.776,-0.851,3.573,0.828C3.505,1.377,3.437,1.941,3.409,2.535C3.343,3.98,3.731,4.849,4.841,5.74C5.071,5.924,5.408,5.886,5.592,5.657C5.775,5.428,5.74,5.091,5.511,4.907Z" /></g><g id="i14"><path fill="#a7dce6" d="M4.149,6.312C2.188,4.648,2.427,2.878,2.684,1.007C2.885,-0.468,3.094,-1.994,2.122,-3.359C1.526,-4.194,0.607,-4.728,-0.534,-4.897C-2.613,-5.209,-4.418,-3.842,-5.368,-1.239C-5.73,-0.242,-5.954,0.848,-5.982,1.755C-6.052,4.391,-4.919,7.185,-2.616,10.063C-2.51,10.194,-2.354,10.262,-2.198,10.262C-2.082,10.262,-1.964,10.224,-1.866,10.146C-1.634,9.962,-1.596,9.625,-1.783,9.396C-3.925,6.722,-4.977,4.159,-4.912,1.785C-4.892,1.002,-4.685,0.008,-4.363,-0.871C-3.998,-1.876,-2.908,-4.172,-0.692,-3.842C0.166,-3.714,0.821,-3.341,1.251,-2.739C1.976,-1.72,1.815,-0.524,1.624,0.861C1.354,2.84,1.05,5.083,3.459,7.127C3.683,7.316,4.021,7.289,4.212,7.065C4.403,6.84,4.376,6.503,4.149,6.312Z" /></g><g id="i3"><path fill="#a7dce6" d="M0.753,0.71C0.869,-0.169,0.967,-0.926,0.826,-1.553C0.645,-2.357,0.088,-2.832,-0.823,-2.968C-1.352,-3.049,-1.871,-2.893,-2.319,-2.518C-3.54,-1.495,-4.006,0.881,-4.033,1.808C-4.096,4.084,-2.993,6.589,-0.76,9.25C-0.655,9.376,-0.504,9.441,-0.352,9.441C-0.229,9.441,-0.108,9.401,-0.008,9.315C0.219,9.126,0.247,8.789,0.058,8.563C-2.002,6.108,-3.019,3.844,-2.963,1.838C-2.938,0.947,-2.472,-0.997,-1.631,-1.699C-1.349,-1.936,-1.125,-1.934,-0.982,-1.913C-0.091,-1.78,-0.058,-1.324,-0.307,0.572C-0.577,2.636,-0.947,5.463,1.576,8.036C1.783,8.245,2.12,8.25,2.331,8.044C2.543,7.837,2.545,7.5,2.339,7.289C0.181,5.086,0.498,2.659,0.753,0.71Z" /></g></g></g></g><g id="i0"><g transform="translate(540,540)"><g transform="scale(4.98,4.98)"><animateTransform repeatCount="indefinite" type="scale" attributeName="transform" dur="3.083s" begin="0s" calcMode="spline" values="4.98 4.98; 5.478 5.478; 4.98 4.98; 4.98 4.98; 5.478 5.478; 4.98 4.98; 4.98 4.98" keyTimes="0; 0.081081; 0.162162; 0.459454; 0.540535; 0.621616; 1" keySplines="0.333 0 0.24 1; 0.824 0 0.667 1; 0 0 1 1; 0.333 0 0.24 1; 0.824 0 0.667 1; 0 0 1 1" fill="freeze" /><g transform="matrix(1,0,0,1,0,0)" id="i15"><g id="i14"><g id="i3"><g id="i3"><path fill="#066aae" d="M10.627,16.574C13.827,16.574,16.435,13.965,16.435,10.765C16.435,7.568,13.827,4.957,10.627,4.957C7.427,4.957,4.819,7.568,4.819,10.765C4.819,13.965,7.427,16.574,10.627,16.574Z" /></g></g></g><g id="i3"><path fill="#a7dce6" d="M9.922,13.087C9.799,13.087,9.675,13.044,9.572,12.956C9.572,12.956,7.737,11.37,7.737,11.37C7.515,11.178,7.49,10.841,7.684,10.617C7.875,10.393,8.213,10.368,8.437,10.562C8.437,10.562,9.877,11.808,9.877,11.808C9.877,11.808,12.77,8.62,12.77,8.62C12.968,8.404,13.306,8.386,13.525,8.585C13.744,8.784,13.759,9.121,13.56,9.34C13.56,9.34,10.317,12.911,10.317,12.911C10.212,13.026,10.068,13.087,9.922,13.087Z" /></g></g></g></g></g></svg>